<?xml version="1.0" standalone="no"?>
<svg xmlns:xlink="http://www.w3.org/1999/xlink" id="wave" style="transform:rotate(180deg); transition: 0.3s" viewBox="0 0 1440 120" version="1.1" xmlns="http://www.w3.org/2000/svg"><defs><linearGradient id="sw-gradient-0" x1="0" x2="0" y1="1" y2="0"><stop stop-color="rgba(255, 249, 234, 1)" offset="0%"/><stop stop-color="rgba(255, 249, 234, 1)" offset="100%"/></linearGradient></defs><path style="transform:translate(0, 0px); opacity:1" fill="url(#sw-gradient-0)" d="M0,48L60,42C120,36,240,24,360,26C480,28,600,44,720,54C840,64,960,68,1080,58C1200,48,1320,24,1440,26C1560,28,1680,56,1800,74C1920,92,2040,100,2160,86C2280,72,2400,36,2520,20C2640,4,2760,8,2880,26C3000,44,3120,76,3240,74C3360,72,3480,36,3600,20C3720,4,3840,8,3960,22C4080,36,4200,60,4320,70C4440,80,4560,76,4680,62C4800,48,4920,24,5040,28C5160,32,5280,64,5400,78C5520,92,5640,88,5760,86C5880,84,6000,84,6120,82C6240,80,6360,76,6480,76C6600,76,6720,80,6840,86C6960,92,7080,100,7200,94C7320,88,7440,68,7560,68C7680,68,7800,88,7920,90C8040,92,8160,76,8280,62C8400,48,8520,36,8580,30L8640,24L8640,120L8580,120C8520,120,8400,120,8280,120C8160,120,8040,120,7920,120C7800,120,7680,120,7560,120C7440,120,7320,120,7200,120C7080,120,6960,120,6840,120C6720,120,6600,120,6480,120C6360,120,6240,120,6120,120C6000,120,5880,120,5760,120C5640,120,5520,120,5400,120C5280,120,5160,120,5040,120C4920,120,4800,120,4680,120C4560,120,4440,120,4320,120C4200,120,4080,120,3960,120C3840,120,3720,120,3600,120C3480,120,3360,120,3240,120C3120,120,3000,120,2880,120C2760,120,2640,120,2520,120C2400,120,2280,120,2160,120C2040,120,1920,120,1800,120C1680,120,1560,120,1440,120C1320,120,1200,120,1080,120C960,120,840,120,720,120C600,120,480,120,360,120C240,120,120,120,60,120L0,120Z"/></svg>